<?xml version="1.0" standalone="no"?>
<!DOCTYPE svg PUBLIC "-//W3C//DTD SVG 20010904//EN"
 "http://www.w3.org/TR/2001/REC-SVG-20010904/DTD/svg10.dtd">
<svg version="1.0" xmlns="http://www.w3.org/2000/svg"
 width="1200.000000pt" height="1200.000000pt" viewBox="0 0 1200.000000 1200.000000"
 preserveAspectRatio="xMidYMid meet">

<g transform="translate(0.000000,1200.000000) scale(0.100000,-0.100000)"
fill="#000000" stroke="none">
<path d="M4275 5488 c-4 -11 -95 -739 -95 -760 0 -5 27 -8 59 -8 50 0 62 4 75
21 l15 22 25 -21 c38 -29 89 -36 151 -18 106 31 192 163 202 311 9 120 -29
201 -103 225 -47 16 -117 -1 -166 -41 -45 -35 -44 -40 -23 111 8 58 15 120 15
138 l0 32 -75 0 c-51 0 -77 -4 -80 -12z m250 -368 c14 -16 19 -36 18 -83 -1
-110 -55 -197 -122 -197 -58 0 -65 9 -57 79 9 76 34 136 76 185 36 41 59 45
85 16z"/>
<path d="M7276 5488 c-3 -7 -23 -170 -46 -363 -22 -192 -43 -362 -46 -377 l-6
-28 84 0 83 0 44 368 c24 202 44 376 45 387 1 18 -6 20 -77 23 -56 2 -78 -1
-81 -10z"/>
<path d="M7558 5484 c-15 -8 -32 -23 -38 -34 -32 -61 16 -140 85 -140 45 0 95
45 95 85 0 41 -26 82 -61 94 -40 14 -48 14 -81 -5z"/>
<path d="M2645 5466 c-148 -47 -246 -156 -281 -315 -39 -173 18 -341 137 -401
123 -63 298 -39 389 55 l30 31 -40 43 -39 44 -28 -19 c-77 -50 -153 -59 -209
-25 -65 39 -92 172 -60 286 42 141 199 218 297 146 44 -32 72 -27 113 21 l36
42 -27 29 c-48 51 -117 77 -203 76 -41 0 -93 -6 -115 -13z"/>
<path d="M6056 5469 c-3 -8 -23 -165 -46 -349 -22 -184 -42 -350 -46 -368 l-5
-34 188 4 c164 4 195 7 243 26 110 44 203 146 237 261 19 64 21 187 5 247 -26
90 -100 168 -194 201 -62 22 -376 32 -382 12z m340 -156 c113 -81 90 -330 -38
-426 -27 -20 -163 -45 -189 -35 -16 6 -14 27 32 396 l12 94 76 -4 c59 -2 83
-8 107 -25z"/>
<path d="M3633 5398 c-6 -7 -16 -31 -23 -53 -22 -69 -39 -95 -63 -95 -35 0
-47 -14 -50 -55 -2 -36 0 -40 28 -45 18 -3 29 -11 28 -20 -38 -321 -37 -304
-18 -343 25 -53 59 -72 130 -71 64 0 135 26 135 50 0 7 -8 30 -17 49 -16 34
-20 36 -50 30 -45 -8 -48 4 -34 144 19 174 11 161 95 161 40 0 75 -2 77 -5 3
-2 -4 -76 -14 -164 -19 -159 -19 -161 0 -198 30 -57 94 -81 170 -65 31 6 66
18 79 27 l24 15 -23 46 c-20 43 -23 45 -54 39 -45 -8 -49 5 -34 139 21 180 14
166 82 166 49 0 59 3 59 18 0 9 3 34 6 55 l7 37 -60 0 -59 0 7 53 c14 100 16
97 -45 97 -62 0 -63 -1 -92 -85 l-21 -60 -87 -3 c-80 -3 -87 -1 -83 15 3 10 8
44 12 76 l6 57 -54 0 c-32 0 -59 -5 -64 -12z"/>
<path d="M3170 5256 c-65 -17 -115 -51 -155 -104 -44 -57 -65 -126 -65 -217 0
-94 27 -148 95 -190 41 -26 58 -30 115 -29 47 0 79 6 112 23 57 27 123 97 150
159 26 57 34 162 19 220 -17 62 -72 119 -134 137 -59 18 -77 18 -137 1z m95
-136 c41 -45 13 -214 -43 -263 -29 -26 -83 -19 -100 13 -29 55 5 223 51 255
30 21 71 19 92 -5z"/>
<path d="M5495 5261 c-99 -26 -155 -94 -155 -190 0 -42 5 -56 31 -86 17 -19
35 -35 41 -35 5 0 34 -12 64 -26 56 -26 70 -54 42 -82 -16 -16 -77 -15 -108 3
-46 27 -77 19 -107 -26 l-27 -41 25 -19 c65 -50 195 -59 268 -18 67 37 104 88
108 151 6 73 -18 108 -99 149 -35 17 -71 38 -80 46 -17 15 -14 42 6 55 18 13
71 9 110 -7 l37 -16 35 35 c20 20 34 41 32 48 -11 38 -157 76 -223 59z"/>
<path d="M6913 5260 c-131 -27 -224 -146 -231 -296 -5 -88 9 -134 55 -185 84
-93 278 -83 376 19 l27 28 -34 33 -34 33 -56 -26 c-72 -34 -119 -34 -151 0
-14 15 -25 37 -25 49 0 19 8 23 76 33 149 23 223 75 231 159 4 39 0 55 -19 83
-39 59 -128 87 -215 70z m82 -139 c0 -30 -36 -57 -92 -70 -38 -8 -43 -7 -43 9
0 10 15 35 34 55 29 30 41 36 68 33 27 -2 33 -7 33 -27z"/>
<path d="M8450 5261 c-195 -42 -302 -297 -194 -463 63 -98 228 -113 352 -32
62 41 71 57 46 85 -36 40 -52 42 -104 15 -64 -33 -119 -34 -148 -3 -12 13 -22
34 -22 48 0 22 6 25 86 41 150 29 215 79 216 166 1 53 -25 98 -70 121 -45 23
-114 32 -162 22z m78 -142 c2 -14 -3 -31 -11 -37 -13 -11 -119 -42 -125 -37
-8 7 21 59 45 81 37 34 87 31 91 -7z"/>
<path d="M4781 5065 c-13 -107 -20 -210 -17 -228 23 -123 139 -161 256 -82 42
28 50 31 50 16 0 -33 33 -51 91 -51 l55 0 28 233 c15 127 30 249 33 270 l6 38
-84 -3 -84 -3 -17 -140 c-19 -149 -35 -199 -77 -238 -32 -30 -51 -37 -73 -25
-23 11 -23 42 2 243 11 88 20 161 20 163 0 1 -37 2 -83 2 l-83 0 -23 -195z"/>
<path d="M7506 5238 c-3 -13 -17 -124 -31 -248 -14 -124 -28 -235 -30 -247 -5
-22 -3 -23 80 -23 68 0 85 3 85 15 0 8 14 127 30 265 17 138 30 253 30 255 0
3 -36 5 -80 5 -75 0 -80 -1 -84 -22z"/>
<path d="M7720 5255 c0 -6 106 -443 121 -498 l10 -38 70 3 71 3 128 265 128
265 -71 3 c-57 2 -74 0 -88 -15 -10 -10 -47 -92 -83 -183 -36 -91 -65 -158
-66 -150 0 8 -11 86 -24 173 -15 105 -28 162 -37 168 -15 9 -159 13 -159 4z"/>
<path d="M8756 5028 c-15 -128 -30 -250 -33 -270 l-6 -38 81 0 81 0 5 33 c3
17 10 75 17 127 18 161 68 239 144 227 l34 -6 11 57 c15 75 17 80 23 62 12
-31 117 -429 117 -443 0 -7 -25 -58 -55 -113 -30 -54 -55 -102 -55 -106 0 -5
29 -8 64 -8 53 0 69 4 90 23 20 18 356 660 356 680 0 11 -129 8 -149 -3 -10
-5 -42 -65 -71 -132 -29 -68 -57 -132 -63 -143 -8 -16 -15 7 -37 117 -14 75
-32 144 -39 152 -11 13 -37 16 -133 16 l-119 0 -49 -46 -50 -47 0 35 c0 47
-15 58 -80 58 l-56 0 -28 -232z"/>
</g>
</svg>
