<?xml version="1.0" standalone="no"?>
<!DOCTYPE svg PUBLIC "-//W3C//DTD SVG 20010904//EN"
 "http://www.w3.org/TR/2001/REC-SVG-20010904/DTD/svg10.dtd">
<svg version="1.0" xmlns="http://www.w3.org/2000/svg"
 width="1200.000000pt" height="1200.000000pt" viewBox="0 0 1200.000000 1200.000000"
 preserveAspectRatio="xMidYMid meet">
<metadata>
Created by potrace 1.14, written by Peter Selinger 2001-2017
</metadata>
<g transform="translate(0.000000,1200.000000) scale(0.100000,-0.100000)"
fill="#000000" stroke="none">
<path d="M7630 7895 c-30 -9 -73 -27 -96 -40 -61 -36 -137 -125 -169 -197
l-27 -63 -162 0 c-176 0 -255 -13 -419 -65 -500 -162 -937 -638 -937 -1020 0
-75 20 -143 52 -177 l21 -23 -86 0 c-75 0 -87 2 -87 17 0 9 14 172 31 361 28
325 29 345 13 363 -15 17 -33 19 -158 19 l-141 0 -44 263 c-49 295 -63 336
-141 414 -60 60 -134 98 -223 114 -147 27 -309 -39 -333 -137 -5 -21 -12 -24
-48 -24 -71 0 -143 -27 -186 -70 -46 -46 -58 -92 -39 -147 18 -51 19 -48 -27
-81 -57 -41 -88 -108 -82 -173 10 -97 85 -142 236 -141 106 1 142 -9 118 -33
-18 -18 -19 -30 -57 -463 -29 -335 -29 -355 -13 -373 16 -17 33 -19 210 -19
l193 0 -42 -119 -43 -120 -64 -49 c-66 -49 -263 -224 -289 -255 -12 -15 -44
-17 -292 -17 -238 0 -279 2 -279 15 0 30 -39 35 -300 35 -261 0 -300 -5 -300
-35 0 -13 -110 -15 -829 -17 l-828 -3 208 -300 c114 -165 208 -307 208 -315 0
-8 -94 -150 -208 -315 l-208 -300 1382 -3 1381 -2 16 -33 c23 -48 120 -150
178 -187 67 -43 178 -79 265 -87 195 -16 437 94 560 256 l39 51 981 0 981 0
16 -33 c23 -48 120 -150 178 -187 67 -43 173 -78 263 -86 194 -17 429 87 557
249 l42 52 817 5 818 5 -208 300 c-115 165 -208 307 -208 315 0 8 93 150 208
315 l208 300 -1175 3 c-1113 2 -1174 3 -1167 20 4 9 10 53 12 97 6 103 -5 152
-117 497 -50 152 -90 281 -90 286 0 5 24 12 54 15 29 3 63 11 74 18 44 28 72
139 72 287 0 160 -37 202 -180 202 -59 0 -85 -5 -125 -25 -40 -19 -374 -95
-419 -95 -5 0 13 19 40 42 27 24 78 70 114 104 44 42 86 71 129 89 l64 27 69
-23 c50 -16 81 -20 115 -15 94 13 182 91 234 209 l24 56 82 -6 c81 -6 82 -6
94 20 16 34 6 65 -34 112 -23 27 -38 58 -46 95 -23 111 -97 202 -193 236 -64
23 -173 27 -238 9z m217 -119 c54 -28 95 -89 108 -161 4 -22 12 -48 17 -58 8
-16 3 -17 -89 -10 -160 13 -201 10 -271 -22 -53 -24 -71 -27 -118 -22 -31 3
-58 8 -61 10 -8 9 36 116 66 161 59 85 153 130 258 122 34 -3 75 -12 90 -20z
m-2732 -45 c41 -18 125 -86 125 -101 0 -4 -28 4 -62 18 -81 32 -221 42 -287
19 -51 -18 -61 -15 -61 17 0 67 175 96 285 47z m-374 -151 c31 -9 36 -14 31
-35 -2 -13 0 -37 6 -53 l10 -28 -76 -12 c-72 -11 -77 -11 -108 10 -65 45 -68
86 -6 112 43 18 93 20 143 6z m381 -26 c14 -7 1 -20 -74 -72 -100 -71 -102
-71 -149 5 -39 63 -6 84 121 80 47 -2 93 -7 102 -13z m192 -254 c20 -113 36
-211 36 -218 0 -9 -49 -12 -202 -12 l-203 0 -84 44 -83 43 248 176 c137 96
250 174 251 173 1 -1 18 -94 37 -206z m1998 179 c42 -22 63 -138 38 -205 -14
-36 -121 -140 -285 -276 -112 -93 -137 -109 -183 -119 -40 -8 -56 -16 -64 -34
-14 -31 12 -75 45 -75 12 0 176 30 365 67 363 71 377 72 377 22 0 -28 -60 -73
-84 -63 -9 3 -48 9 -87 11 -71 5 -74 4 -260 -70 -244 -97 -365 -138 -436 -144
-53 -5 -59 -4 -87 25 -22 22 -31 40 -31 64 0 77 147 322 271 452 69 74 84 107
57 134 -27 27 -66 13 -124 -44 -151 -151 -314 -432 -314 -540 0 -35 -1 -36
-28 -31 -127 26 -266 38 -387 35 -74 -2 -135 -1 -135 1 0 2 18 40 41 85 178
357 616 657 1034 709 70 9 258 6 277 -4z m537 -45 c8 -7 -51 -93 -84 -122 -51
-45 -78 -49 -153 -22 -46 16 -75 21 -103 16 l-39 -6 0 45 0 45 53 0 c35 1 73
10 117 30 58 25 73 28 135 23 39 -3 72 -7 74 -9z m-3021 -92 c8 -6 -9 -23 -54
-55 -64 -44 -68 -45 -91 -30 -53 35 -48 64 14 83 36 11 114 12 131 2z m-291
-36 c1 -18 8 -47 17 -64 22 -42 18 -47 -27 -44 -52 3 -77 18 -77 46 0 28 34
74 64 86 11 5 21 9 22 9 0 1 0 -14 1 -33z m1120 -413 c-3 -38 -16 -184 -28
-325 l-22 -258 -439 0 -438 0 0 23 c0 13 11 149 25 302 14 154 25 290 25 303
l0 22 441 0 442 0 -6 -67z m2130 -65 c-8 -180 -3 -172 -103 -164 -75 6 -85 5
-104 -14 -11 -11 -20 -24 -20 -29 0 -5 45 -148 99 -318 150 -464 159 -504 130
-619 l-11 -44 -83 0 -83 0 21 53 c17 41 21 73 21 157 0 112 1 105 -200 752
-15 49 -25 91 -21 94 3 3 29 0 57 -7 51 -13 53 -13 117 20 102 54 139 132 98
211 l-16 30 52 0 52 0 -6 -122z m-453 -205 c41 -127 179 -587 198 -658 26
-100 20 -191 -16 -270 l-25 -55 -241 0 c-190 0 -240 3 -234 13 5 6 46 71 93
142 151 233 172 306 118 416 -45 92 -119 157 -283 248 l-83 47 97 33 c53 18
151 54 217 81 66 27 125 49 132 49 6 1 18 -20 27 -46z m-986 -59 c151 -22 268
-63 460 -159 250 -127 322 -189 330 -288 5 -66 4 -69 -146 -299 l-115 -178
-89 0 c-48 0 -88 3 -88 7 0 4 47 96 105 206 104 196 112 220 82 245 -7 6 -89
23 -182 37 -94 14 -209 35 -256 46 -154 36 -445 165 -494 219 -14 16 -20 40
-23 91 -4 65 -3 69 19 78 38 15 282 12 397 -5z m-165 -408 c112 -45 275 -96
306 -96 33 0 42 -14 30 -48 l-11 -32 -719 0 c-395 0 -719 3 -719 8 0 29 64
171 85 190 l26 22 446 0 445 0 111 -44z m577 -143 c2 -2 -14 -39 -36 -81 -23
-42 -67 -125 -98 -184 l-58 -108 -125 0 -125 0 52 60 c29 33 92 92 141 130 49
39 89 75 89 80 0 5 9 34 21 65 l21 56 56 -7 c32 -3 59 -8 62 -11z m-448 -218
c-39 -41 -83 -92 -98 -115 l-27 -40 -175 0 -174 0 -34 30 c-64 56 -157 90
-285 105 -123 15 -352 -36 -476 -106 -51 -28 -58 -29 -180 -29 l-127 0 35 36
c18 20 78 72 132 115 l98 79 691 0 691 0 -71 -75z m-709 -145 c14 -5 -43 -9
-153 -9 -96 1 -170 3 -165 5 53 22 267 25 318 4z m-1171 -155 c2 -3 -1 -51 -8
-107 -7 -57 -16 -125 -19 -153 l-6 -50 28 27 c86 82 209 74 257 -18 17 -32 21
-58 21 -139 0 -91 -3 -106 -31 -165 -71 -149 -197 -215 -305 -159 -37 19 -42
19 -58 5 -24 -22 -131 -23 -131 -2 0 8 20 181 45 385 25 203 45 372 45 375 0
7 155 8 162 1z m3008 -1 c0 -3 -20 -172 -45 -375 -25 -204 -45 -377 -45 -385
0 -11 -18 -14 -85 -14 -47 0 -85 2 -85 4 0 3 20 171 45 375 25 203 45 377 45
385 0 13 15 16 85 16 47 0 85 -2 85 -6z m210 -9 c88 -45 52 -175 -48 -175 -86
0 -125 99 -63 161 33 33 67 37 111 14z m-4759 -29 c39 -19 56 -32 82 -63 18
-20 17 -22 -14 -57 -49 -57 -62 -61 -112 -33 -61 35 -92 40 -151 23 -91 -27
-154 -119 -163 -240 -16 -198 118 -284 279 -179 27 17 28 17 59 -12 53 -51 55
-63 17 -97 -125 -110 -327 -116 -438 -12 -63 59 -91 125 -97 229 -15 236 133
436 343 463 71 9 149 0 195 -22z m3492 14 c74 -12 141 -45 179 -89 164 -186
85 -513 -149 -624 l-68 -32 -192 -3 c-106 -2 -193 -1 -193 2 0 3 20 168 45
368 25 200 45 369 45 376 0 15 244 17 333 2z m-2638 -130 l-7 -80 80 0 80 0
21 63 c30 88 32 90 96 95 l58 5 -7 -82 -7 -81 57 0 57 0 -6 -50 c-3 -28 -9
-55 -12 -60 -3 -6 -30 -10 -59 -10 l-53 0 -6 -37 c-16 -108 -29 -244 -24 -250
4 -3 23 -6 43 -7 34 -1 39 -5 55 -44 l18 -43 -31 -19 c-39 -23 -105 -35 -152
-26 -42 8 -92 53 -102 91 -4 15 1 89 10 164 23 189 29 171 -58 171 -72 0 -74
0 -79 -27 -13 -68 -30 -254 -23 -260 4 -4 21 -6 39 -5 30 2 35 -2 55 -43 l22
-45 -32 -20 c-69 -42 -172 -38 -219 9 -41 41 -44 71 -26 226 21 171 21 165 -1
165 -25 0 -42 19 -42 48 0 36 18 62 45 62 23 0 55 23 55 40 0 5 9 34 20 64 22
58 29 63 99 65 l43 1 -7 -80z m-442 -81 c52 -14 112 -71 133 -124 24 -64 16
-173 -18 -247 -53 -115 -165 -185 -281 -175 -138 12 -212 125 -187 284 31 190
189 308 353 262z m2353 -13 c28 -13 55 -29 58 -35 9 -14 -29 -77 -51 -85 -9
-4 -35 1 -58 10 -49 18 -94 16 -108 -7 -17 -28 0 -49 66 -78 35 -16 75 -43 91
-62 25 -30 28 -39 24 -90 -9 -119 -90 -184 -228 -184 -58 1 -85 6 -117 23 -23
12 -45 26 -48 32 -9 15 34 80 59 90 14 5 33 1 58 -11 60 -31 128 -20 128 20 0
24 -26 45 -83 66 -27 10 -62 32 -78 47 -25 25 -29 37 -29 84 0 30 6 69 14 87
44 102 187 146 302 93z m1379 13 c22 -6 56 -28 77 -49 32 -32 38 -44 38 -80 0
-58 -23 -101 -71 -132 -42 -27 -153 -58 -208 -58 -34 0 -36 -5 -21 -46 23 -60
80 -70 161 -29 58 30 79 27 110 -16 l21 -31 -33 -28 c-54 -46 -113 -70 -183
-77 -107 -10 -187 33 -227 121 -23 51 -25 166 -4 225 53 152 200 239 340 200z
m1586 -24 c50 -33 73 -82 64 -137 -14 -79 -88 -128 -230 -151 -68 -10 -75 -14
-75 -35 0 -12 11 -34 25 -47 32 -33 78 -32 139 0 26 14 53 25 60 25 6 0 27
-15 45 -34 l32 -33 -37 -33 c-63 -55 -118 -75 -211 -75 -75 0 -85 3 -125 30
-134 95 -129 314 10 449 81 78 219 97 303 41z m-3654 -12 c-18 -121 -39 -344
-34 -357 9 -22 49 -20 80 4 44 35 65 95 83 248 l17 142 84 0 c72 0 83 -2 83
-17 0 -10 -14 -126 -30 -258 -16 -132 -30 -246 -30 -252 0 -9 -19 -13 -59 -13
-64 0 -91 15 -91 51 0 18 -4 17 -37 -10 -80 -63 -179 -66 -232 -6 -49 57 -50
93 -9 418 l11 87 85 0 85 0 -6 -37z m2703 20 c0 -10 -14 -128 -30 -263 -17
-135 -30 -248 -30 -252 0 -5 -38 -8 -85 -8 l-86 0 5 33 c3 17 17 133 32 257
14 124 27 231 29 238 3 8 29 12 85 12 70 0 80 -2 80 -17z m218 0 c6 -10 20
-92 33 -182 12 -91 25 -158 27 -150 24 76 128 327 140 337 14 10 162 19 162 8
0 -2 -58 -123 -130 -270 l-130 -267 -72 3 -73 3 -62 255 c-34 140 -62 261 -63
268 0 8 22 12 80 12 65 0 81 -3 88 -17z m1026 -5 c9 -12 16 -32 16 -43 l1 -20
17 20 c51 60 67 65 198 65 107 0 124 -2 132 -17 5 -10 20 -73 33 -140 12 -68
26 -123 30 -123 4 0 30 55 59 123 29 67 60 130 69 140 14 15 31 17 93 15 l76
-3 -177 -343 c-98 -189 -184 -348 -192 -353 -19 -12 -149 -12 -149 1 0 5 25
55 57 111 l56 101 -58 217 c-32 119 -61 220 -65 224 -4 5 -11 -13 -15 -39 -10
-69 -12 -71 -59 -70 -30 1 -51 -5 -65 -18 -32 -29 -57 -110 -71 -226 -17 -152
-8 -140 -101 -140 -69 0 -79 2 -79 18 0 9 14 125 30 257 16 132 30 246 30 253
0 8 19 12 59 12 51 0 62 -3 75 -22z m-3973 -854 c56 -21 170 -21 228 0 31 11
77 16 160 16 l116 -1 -57 -54 c-134 -125 -329 -172 -505 -120 -67 20 -161 83
-202 133 l-33 42 125 0 c91 0 136 -4 168 -16z m3022 1 c21 -9 67 -15 110 -15
41 0 94 7 117 15 29 10 80 15 159 15 l116 -1 -57 -54 c-134 -125 -329 -172
-505 -120 -67 20 -161 83 -202 133 l-33 42 130 0 c93 0 140 -4 165 -15z"/>
<path d="M4452 5115 c-57 -48 -116 -244 -80 -266 21 -14 72 -10 97 7 59 42 94
207 55 262 -20 28 -36 28 -72 -3z"/>
<path d="M6187 5118 c-15 -123 -27 -231 -27 -240 0 -16 10 -18 70 -18 101 0
162 35 203 115 23 46 40 153 32 204 -17 112 -75 160 -191 161 l-61 0 -26 -222z"/>
<path d="M3162 5105 c-34 -38 -46 -81 -46 -167 -1 -64 21 -98 61 -98 33 0 79
48 92 96 16 58 14 156 -5 182 -24 34 -66 29 -102 -13z"/>
<path d="M6912 5135 c-25 -18 -57 -74 -47 -83 10 -10 99 18 120 39 40 39 -24
78 -73 44z"/>
<path d="M8447 5130 c-15 -12 -35 -36 -43 -52 l-16 -31 42 7 c69 11 102 32 98
64 -4 36 -44 41 -81 12z"/>
<path d="M3795 6426 c-25 -25 -25 -44 -2 -73 7 -10 80 -13 303 -13 253 0 295
2 308 16 20 19 20 44 2 70 -14 18 -31 19 -300 22 l-286 3 -25 -25z"/>
<path d="M3156 6054 c-20 -19 -20 -44 -2 -70 14 -18 33 -19 671 -19 638 0 657
1 671 19 18 26 18 51 -2 70 -14 14 -88 16 -669 16 -581 0 -655 -2 -669 -16z"/>
</g>
</svg>
